<svg width="116" height="31" viewBox="0 0 116 31" fill="none" xmlns="http://www.w3.org/2000/svg">
<path opacity="0.822824" fill-rule="evenodd" clip-rule="evenodd" d="M15.9163 0.374268C10.7979 0.374511 6.20576 3.52797 4.35616 8.31267C2.50656 13.0974 3.77971 18.5298 7.56114 21.988C4.34312 18.5023 3.97611 13.242 6.67877 9.3411C9.38142 5.44024 14.4264 3.94872 18.8078 5.75521C23.1892 7.56171 25.7279 12.18 24.9112 16.8585C24.0946 21.537 20.1424 25.0165 15.4095 25.2239C15.5775 25.2307 15.7469 25.2348 15.9163 25.2348C22.7638 25.2348 28.3148 19.6696 28.3148 12.8045C28.3148 5.93949 22.7638 0.374268 15.9163 0.374268Z" fill="#398ADC"/>
<path opacity="0.293527" fill-rule="evenodd" clip-rule="evenodd" d="M23.0069 8.97851C25.5298 12.3208 25.7416 16.8784 23.5397 20.442C21.3377 24.0057 17.1771 25.8391 13.0746 25.0534C8.97202 24.2677 5.77539 21.0254 5.03415 16.898C4.2929 12.7707 6.16023 8.61133 9.731 6.43604C4.64916 8.52175 1.53839 13.7151 2.08524 19.2006C2.63208 24.686 6.70631 29.1571 12.099 30.1899C17.4918 31.2226 22.9187 28.5711 25.4377 23.6728C27.9566 18.7745 26.9676 12.796 23.0069 8.97851Z" fill="#24509D"/>
<path opacity="0.504534" d="M12.927 3.23486C6.07955 3.23486 0.528564 8.80009 0.528564 15.6651C0.528564 22.5302 6.07955 28.0954 12.927 28.0954C19.7745 28.0954 25.3255 22.5302 25.3255 15.6651C25.3248 8.8004 19.7742 3.23561 12.927 3.23486ZM23.835 19.9444C23.7632 20.0803 23.6887 20.2052 23.6114 20.3343C23.587 20.3751 23.5613 20.4145 23.5369 20.4538C23.4827 20.5422 23.4271 20.6291 23.3689 20.716C23.3404 20.7609 23.3106 20.8043 23.2794 20.8519C23.2225 20.9361 23.1643 21.0176 23.1046 21.0991C23.0748 21.1399 23.0464 21.1806 23.0152 21.2214C22.9434 21.3179 22.8689 21.4116 22.793 21.5053C22.774 21.5271 22.7578 21.5502 22.7388 21.5719C22.6453 21.6874 22.5477 21.7988 22.4475 21.9088C22.4204 21.94 22.3933 21.9686 22.3648 21.9985C22.2916 22.0786 22.2171 22.1574 22.1399 22.2348L22.0287 22.3449C21.9583 22.4155 21.8865 22.4807 21.8133 22.5514L21.6981 22.6573C21.6168 22.7307 21.5342 22.8013 21.4515 22.872C21.4203 22.8978 21.3905 22.925 21.358 22.9508C21.2442 23.0445 21.1277 23.1369 21.0084 23.2225L20.9393 23.2727C20.8431 23.3434 20.7442 23.4086 20.6453 23.4819L20.5193 23.5662C20.4352 23.6219 20.3499 23.6762 20.2645 23.7306L20.129 23.8134C20.0409 23.8664 19.9501 23.918 19.858 23.9683C19.8173 23.9914 19.7767 24.0158 19.7347 24.0376C19.5992 24.1096 19.4705 24.1734 19.335 24.2427C19.0405 24.3849 18.7387 24.513 18.4298 24.6272C18.274 24.6842 18.1181 24.7372 17.9596 24.7861C17.8011 24.835 17.6425 24.8812 17.4813 24.922C17.32 24.9627 17.1913 24.9926 17.045 25.0238L16.9515 25.0429C16.8078 25.0714 16.6642 25.0972 16.5179 25.1203L16.4447 25.1312C16.3092 25.1502 16.1737 25.1678 16.0382 25.1828L15.965 25.1909C15.8173 25.2059 15.6683 25.2168 15.5179 25.2249H15.4203C15.2658 25.2317 15.1113 25.2371 14.9555 25.2371C9.38024 25.2371 4.86058 20.7059 4.86058 15.1163C4.86058 9.52673 9.38024 4.99548 14.9555 4.99548C15.1113 4.99548 15.2658 4.99548 15.4203 5.00771H15.5179C15.6683 5.01586 15.8173 5.02672 15.965 5.04167L16.0382 5.04982C16.1737 5.06476 16.3092 5.08242 16.4447 5.10144L16.5179 5.11231C16.6642 5.1354 16.8078 5.16122 16.9515 5.18974L17.045 5.20876C17.1913 5.24001 17.3377 5.27261 17.4813 5.31065C17.6249 5.34869 17.8024 5.3976 17.9596 5.4465C18.1168 5.49541 18.274 5.54839 18.4298 5.60545C18.7387 5.71956 19.0405 5.84771 19.335 5.9899C19.4705 6.05511 19.606 6.12575 19.7347 6.19503C19.7767 6.21677 19.8173 6.24122 19.858 6.26432C19.9488 6.31458 20.0396 6.36621 20.129 6.41919L20.2645 6.50206C20.3499 6.5564 20.4352 6.61074 20.5193 6.66643L20.6453 6.75066C20.7442 6.81859 20.8431 6.88651 20.9393 6.95987L21.0084 7.01013C21.1277 7.0998 21.2442 7.19217 21.358 7.28184C21.3905 7.30765 21.4203 7.33482 21.4515 7.36063C21.5342 7.43127 21.6168 7.49648 21.6981 7.57527L21.8133 7.68123C21.8865 7.74916 21.9583 7.81708 22.0287 7.88773L22.1399 7.99776C22.2171 8.0752 22.2916 8.15399 22.3648 8.23414C22.3933 8.26403 22.4204 8.29256 22.4475 8.3238C22.5477 8.43384 22.6453 8.54524 22.7388 8.66071C22.7578 8.68245 22.774 8.70554 22.793 8.72728C22.8689 8.82102 22.9434 8.91475 23.0152 9.01121C23.0464 9.05196 23.0748 9.09271 23.1046 9.13347C23.1643 9.21498 23.2225 9.29649 23.2794 9.38072C23.3106 9.42419 23.3404 9.46766 23.3689 9.51657C23.4271 9.60351 23.4827 9.69045 23.5369 9.77876C23.5613 9.81815 23.587 9.85755 23.6114 9.89831C23.6887 10.0274 23.7632 10.1564 23.835 10.2882C23.9068 10.42 23.9705 10.5463 24.0342 10.6781L24.0748 10.761C24.1358 10.8968 24.1941 11.0204 24.251 11.1522C24.2605 11.1739 24.2686 11.197 24.2781 11.2188C24.3282 11.3397 24.377 11.4619 24.4231 11.5856L24.4475 11.6535C24.4963 11.7893 24.5423 11.9252 24.583 12.061L24.6114 12.1507C24.6981 12.4346 24.7713 12.724 24.8337 13.0174C24.8337 13.0487 24.8458 13.0799 24.8526 13.1112C24.8811 13.2552 24.9068 13.3992 24.9299 13.5459C24.9299 13.5703 24.9299 13.5948 24.9407 13.6192C24.9597 13.7551 24.9773 13.8909 24.9922 14.0268L25.0003 14.1001C25.0152 14.2482 25.0261 14.3977 25.0342 14.5485V14.6463C25.041 14.8011 25.0464 14.956 25.0464 15.1122C25.0464 15.2685 25.0464 15.4233 25.0342 15.5782V15.676C25.0261 15.8268 25.0152 15.9762 25.0003 16.1243L24.9922 16.1977C24.9773 16.3335 24.9597 16.4694 24.9407 16.6052C24.9407 16.6297 24.9339 16.6541 24.9299 16.6786C24.9068 16.8253 24.8811 16.9693 24.8526 17.1133C24.8526 17.1445 24.8404 17.1758 24.8337 17.207C24.7713 17.5005 24.6981 17.7898 24.6114 18.0738L24.583 18.1634C24.5396 18.2993 24.4935 18.4351 24.4475 18.571L24.4231 18.6389C24.377 18.7625 24.3282 18.8848 24.2781 19.0057C24.2686 19.0274 24.2605 19.0505 24.251 19.0723C24.1941 19.2081 24.1358 19.3344 24.0748 19.4635L24.0342 19.5464C23.9705 19.6877 23.9055 19.8181 23.835 19.9444Z" fill="#398ADC"/>
<path opacity="0.534728" fill-rule="evenodd" clip-rule="evenodd" d="M17.2749 3.64356C13.788 3.63915 10.4614 5.11135 8.11497 7.69733C11.5917 4.47107 16.8386 4.10311 20.7295 6.81269C24.6204 9.52227 26.1081 14.5802 24.3062 18.9728C22.5044 23.3654 17.8978 25.9106 13.2313 25.0918C8.5648 24.2731 5.09418 20.3108 4.88731 15.5658C4.88731 15.7342 4.87646 15.904 4.87646 16.0738C4.87646 22.9389 10.4275 28.5041 17.2749 28.5041C24.1224 28.5041 29.6734 22.9389 29.6734 16.0738C29.6734 9.20879 24.1224 3.64356 17.2749 3.64356Z" fill="#24509D"/>
<path d="M41.9534 22.3042C39.809 22.3042 38.0819 21.4942 36.8911 20.1518L36.7859 20.0332L37.8513 18.6448C38.0521 18.6448 38.1881 18.6448 38.2591 18.6448C39.1892 19.7007 40.3759 20.3727 41.9953 20.3727C43.6455 20.3727 44.7491 19.6196 44.7491 18.4422C44.7491 17.8211 44.5201 17.4139 43.9342 17.0602C43.456 16.7715 42.9313 16.5815 41.7873 16.2725C41.7314 16.2575 41.5224 16.2012 41.4752 16.1884C41.3523 16.1553 41.2546 16.1287 41.1601 16.1026C39.8798 15.7493 39.1222 15.4053 38.4804 14.9346C37.6463 14.3229 37.2502 13.489 37.2502 12.3551C37.2502 10.1318 39.1724 8.56152 41.8566 8.56152C43.8031 8.56152 45.4079 9.21881 46.5698 10.4431L46.695 10.5763L45.5913 11.9309H45.1944C44.4002 11.1242 43.2765 10.4915 41.8281 10.4915C40.3827 10.4915 39.3981 11.2163 39.3981 12.24C39.3981 12.7295 39.621 13.0874 40.1263 13.3873C40.5506 13.639 40.9984 13.7999 41.9953 14.0729C42.088 14.0983 42.4198 14.1884 42.4836 14.2058C42.6784 14.259 42.8326 14.302 42.982 14.3449C44.2155 14.6994 44.9953 15.0812 45.645 15.5953C46.4746 16.2516 46.8842 17.1352 46.8842 18.3171C46.8842 19.3646 46.5308 20.3358 45.7787 21.0494C44.9239 21.8604 43.6385 22.3042 41.9534 22.3042ZM58.2587 8.69759H59.8258L60.0793 8.9552V21.7803L59.8325 22.0321H58.1955L51.2374 12.338V21.7802L50.9917 22.0321H49.4017L49.1731 21.7939V8.93862L49.4012 8.69759H51.1436L58.0096 18.2073V8.96142L58.2587 8.69759ZM63.9026 22.0321H61.9352L61.695 21.6841L66.865 8.69759H69.1644L74.3516 21.6856L74.108 22.0321H72.1353L71.0167 19.1988H65.0391L63.9026 22.0321ZM68.0233 11.2829L65.7343 17.2698H70.3122L68.0233 11.2829ZM77.6659 22.0321H76.0781L75.8326 21.774V8.94337C75.9739 8.80126 76.0557 8.71934 76.0781 8.69759C77.2144 8.69759 78.9189 8.69759 81.1916 8.69759C83.7333 8.69759 85.3924 10.4469 85.3924 12.8094C85.3924 15.1647 83.7206 16.9151 81.1916 16.9151H77.9133V21.7791L77.6659 22.0321ZM89.2453 22.0321H87.6574L87.412 21.774V8.94337C87.5533 8.80126 87.6351 8.71934 87.6574 8.69759C88.7938 8.69759 90.4983 8.69759 92.771 8.69759C95.3127 8.69759 96.9717 10.4469 96.9717 12.8094C96.9717 15.1647 95.2999 16.9151 92.771 16.9151H89.4927V21.7791L89.2453 22.0321ZM81.0688 15.0927C82.4438 15.0927 83.3727 14.218 83.3727 12.9157C83.3727 11.6133 82.4438 10.7386 81.0688 10.7386H77.9869V15.0927H81.0688ZM92.5135 15.0927C93.8886 15.0927 94.8174 14.218 94.8174 12.9157C94.8174 11.6133 93.8886 10.7386 92.5135 10.7386H89.4317V15.0927H92.5135ZM98.9914 21.8008V8.92798L99.2207 8.69759H100.768L101.011 8.94419V21.7768L100.755 22.0321H99.2303L98.9914 21.8008ZM110.157 22.3042C106.316 22.3042 103.435 19.4287 103.435 15.4329C103.435 11.437 106.316 8.56152 110.157 8.56152C112.3 8.56152 113.979 9.51935 115.132 11.1993L115.057 11.5285L113.529 12.4089L113.431 12.2595C112.72 11.1758 111.501 10.4645 110.157 10.4645C107.445 10.4645 105.516 12.4818 105.516 15.4329C105.516 18.359 107.458 20.363 110.157 20.363C111.489 20.363 112.713 19.6731 113.432 18.596L113.529 18.4512L115.079 19.2809L115.149 19.6502C113.922 21.3649 112.288 22.3042 110.157 22.3042Z" fill="#24509D"/>
</svg>
